M48
; DRILL file {KiCad 5.1.9-73d0e3b20d~88~ubuntu20.04.1} date Wed Jan 27 17:20:52 2021
; FORMAT={-:-/ absolute / inch / decimal}
; #@! TF.CreationDate,2021-01-27T17:20:52-06:00
; #@! TF.GenerationSoftware,Kicad,Pcbnew,5.1.9-73d0e3b20d~88~ubuntu20.04.1
; #@! TF.FileFunction,Plated,1,2,PTH
FMAT,2
INCH
T1C0.0400
%
G90
G05
T1
X2.8Y-2.3
X2.8Y-2.4
X2.8Y-2.6
X2.8Y-2.7
X2.8Y-2.8
X2.8Y-2.9
X2.8Y-3.0
X2.8Y-3.3
X2.8Y-3.4
X2.8Y-3.5
X2.8Y-3.6
X2.8Y-3.7
X2.8Y-3.9
X2.8Y-4.0
X2.9Y-2.3
X2.9Y-2.4
X2.9Y-2.6
X2.9Y-2.7
X2.9Y-2.8
X2.9Y-2.9
X2.9Y-3.0
X2.9Y-3.3
X2.9Y-3.4
X2.9Y-3.5
X2.9Y-3.6
X2.9Y-3.7
X2.9Y-3.9
X2.9Y-4.0
X3.0Y-2.3
X3.0Y-2.4
X3.0Y-2.6
X3.0Y-2.7
X3.0Y-2.8
X3.0Y-2.9
X3.0Y-3.0
X3.0Y-3.3
X3.0Y-3.4
X3.0Y-3.5
X3.0Y-3.6
X3.0Y-3.7
X3.0Y-3.9
X3.0Y-4.0
X3.1Y-2.3
X3.1Y-2.4
X3.1Y-2.6
X3.1Y-2.7
X3.1Y-2.8
X3.1Y-2.9
X3.1Y-3.0
X3.1Y-3.3
X3.1Y-3.4
X3.1Y-3.5
X3.1Y-3.6
X3.1Y-3.7
X3.1Y-3.9
X3.1Y-4.0
X3.2Y-2.3
X3.2Y-2.4
X3.2Y-2.6
X3.2Y-2.7
X3.2Y-2.8
X3.2Y-2.9
X3.2Y-3.0
X3.2Y-3.3
X3.2Y-3.4
X3.2Y-3.5
X3.2Y-3.6
X3.2Y-3.7
X3.2Y-3.9
X3.2Y-4.0
X3.3Y-2.3
X3.3Y-2.4
X3.3Y-2.6
X3.3Y-2.7
X3.3Y-2.8
X3.3Y-2.9
X3.3Y-3.0
X3.3Y-3.3
X3.3Y-3.4
X3.3Y-3.5
X3.3Y-3.6
X3.3Y-3.7
X3.3Y-3.9
X3.3Y-4.0
X3.4Y-2.3
X3.4Y-2.4
X3.4Y-2.6
X3.4Y-2.7
X3.4Y-2.8
X3.4Y-2.9
X3.4Y-3.0
X3.4Y-3.3
X3.4Y-3.4
X3.4Y-3.5
X3.4Y-3.6
X3.4Y-3.7
X3.4Y-3.9
X3.4Y-4.0
X3.5Y-2.3
X3.5Y-2.4
X3.5Y-2.6
X3.5Y-2.7
X3.5Y-2.8
X3.5Y-2.9
X3.5Y-3.0
X3.5Y-3.3
X3.5Y-3.4
X3.5Y-3.5
X3.5Y-3.6
X3.5Y-3.7
X3.5Y-3.9
X3.5Y-4.0
X3.6Y-2.3
X3.6Y-2.4
X3.6Y-2.6
X3.6Y-2.7
X3.6Y-2.8
X3.6Y-2.9
X3.6Y-3.0
X3.6Y-3.3
X3.6Y-3.4
X3.6Y-3.5
X3.6Y-3.6
X3.6Y-3.7
X3.6Y-3.9
X3.6Y-4.0
X3.7Y-2.3
X3.7Y-2.4
X3.7Y-2.6
X3.7Y-2.7
X3.7Y-2.8
X3.7Y-2.9
X3.7Y-3.0
X3.7Y-3.3
X3.7Y-3.4
X3.7Y-3.5
X3.7Y-3.6
X3.7Y-3.7
X3.7Y-3.9
X3.7Y-4.0
X3.8Y-2.3
X3.8Y-2.4
X3.8Y-2.6
X3.8Y-2.7
X3.8Y-2.8
X3.8Y-2.9
X3.8Y-3.0
X3.8Y-3.3
X3.8Y-3.4
X3.8Y-3.5
X3.8Y-3.6
X3.8Y-3.7
X3.8Y-3.9
X3.8Y-4.0
X3.9Y-2.3
X3.9Y-2.4
X3.9Y-2.6
X3.9Y-2.7
X3.9Y-2.8
X3.9Y-2.9
X3.9Y-3.0
X3.9Y-3.3
X3.9Y-3.4
X3.9Y-3.5
X3.9Y-3.6
X3.9Y-3.7
X3.9Y-3.9
X3.9Y-4.0
X4.0Y-2.3
X4.0Y-2.4
X4.0Y-2.6
X4.0Y-2.7
X4.0Y-2.8
X4.0Y-2.9
X4.0Y-3.0
X4.0Y-3.3
X4.0Y-3.4
X4.0Y-3.5
X4.0Y-3.6
X4.0Y-3.7
X4.0Y-3.9
X4.0Y-4.0
X4.1Y-2.3
X4.1Y-2.4
X4.1Y-2.6
X4.1Y-2.7
X4.1Y-2.8
X4.1Y-2.9
X4.1Y-3.0
X4.1Y-3.3
X4.1Y-3.4
X4.1Y-3.5
X4.1Y-3.6
X4.1Y-3.7
X4.1Y-3.9
X4.1Y-4.0
X4.2Y-2.3
X4.2Y-2.4
X4.2Y-2.6
X4.2Y-2.7
X4.2Y-2.8
X4.2Y-2.9
X4.2Y-3.0
X4.2Y-3.3
X4.2Y-3.4
X4.2Y-3.5
X4.2Y-3.6
X4.2Y-3.7
X4.2Y-3.9
X4.2Y-4.0
X4.3Y-2.3
X4.3Y-2.4
X4.3Y-2.6
X4.3Y-2.7
X4.3Y-2.8
X4.3Y-2.9
X4.3Y-3.0
X4.3Y-3.3
X4.3Y-3.4
X4.3Y-3.5
X4.3Y-3.6
X4.3Y-3.7
X4.3Y-3.9
X4.3Y-4.0
X4.4Y-2.3
X4.4Y-2.4
X4.4Y-2.6
X4.4Y-2.7
X4.4Y-2.8
X4.4Y-2.9
X4.4Y-3.0
X4.4Y-3.3
X4.4Y-3.4
X4.4Y-3.5
X4.4Y-3.6
X4.4Y-3.7
X4.4Y-3.9
X4.4Y-4.0
X4.5Y-2.3
X4.5Y-2.4
X4.5Y-2.6
X4.5Y-2.7
X4.5Y-2.8
X4.5Y-2.9
X4.5Y-3.0
X4.5Y-3.3
X4.5Y-3.4
X4.5Y-3.5
X4.5Y-3.6
X4.5Y-3.7
X4.5Y-3.9
X4.5Y-4.0
X4.6Y-2.3
X4.6Y-2.4
X4.6Y-2.6
X4.6Y-2.7
X4.6Y-2.8
X4.6Y-2.9
X4.6Y-3.0
X4.6Y-3.3
X4.6Y-3.4
X4.6Y-3.5
X4.6Y-3.6
X4.6Y-3.7
X4.6Y-3.9
X4.6Y-4.0
X4.7Y-2.3
X4.7Y-2.4
X4.7Y-2.6
X4.7Y-2.7
X4.7Y-2.8
X4.7Y-2.9
X4.7Y-3.0
X4.7Y-3.3
X4.7Y-3.4
X4.7Y-3.5
X4.7Y-3.6
X4.7Y-3.7
X4.7Y-3.9
X4.7Y-4.0
X4.8Y-2.3
X4.8Y-2.4
X4.8Y-2.6
X4.8Y-2.7
X4.8Y-2.8
X4.8Y-2.9
X4.8Y-3.0
X4.8Y-3.3
X4.8Y-3.4
X4.8Y-3.5
X4.8Y-3.6
X4.8Y-3.7
X4.8Y-3.9
X4.8Y-4.0
X4.9Y-2.3
X4.9Y-2.4
X4.9Y-2.6
X4.9Y-2.7
X4.9Y-2.8
X4.9Y-2.9
X4.9Y-3.0
X4.9Y-3.3
X4.9Y-3.4
X4.9Y-3.5
X4.9Y-3.6
X4.9Y-3.7
X4.9Y-3.9
X4.9Y-4.0
X5.0Y-2.3
X5.0Y-2.4
X5.0Y-2.6
X5.0Y-2.7
X5.0Y-2.8
X5.0Y-2.9
X5.0Y-3.0
X5.0Y-3.3
X5.0Y-3.4
X5.0Y-3.5
X5.0Y-3.6
X5.0Y-3.7
X5.0Y-3.9
X5.0Y-4.0
X5.1Y-2.3
X5.1Y-2.4
X5.1Y-2.6
X5.1Y-2.7
X5.1Y-2.8
X5.1Y-2.9
X5.1Y-3.0
X5.1Y-3.3
X5.1Y-3.4
X5.1Y-3.5
X5.1Y-3.6
X5.1Y-3.7
X5.1Y-3.9
X5.1Y-4.0
X5.2Y-2.3
X5.2Y-2.4
X5.2Y-2.6
X5.2Y-2.7
X5.2Y-2.8
X5.2Y-2.9
X5.2Y-3.0
X5.2Y-3.3
X5.2Y-3.4
X5.2Y-3.5
X5.2Y-3.6
X5.2Y-3.7
X5.2Y-3.9
X5.2Y-4.0
X5.3Y-2.3
X5.3Y-2.4
X5.3Y-2.6
X5.3Y-2.7
X5.3Y-2.8
X5.3Y-2.9
X5.3Y-3.0
X5.3Y-3.3
X5.3Y-3.4
X5.3Y-3.5
X5.3Y-3.6
X5.3Y-3.7
X5.3Y-3.9
X5.3Y-4.0
X5.4Y-2.3
X5.4Y-2.4
X5.4Y-2.6
X5.4Y-2.7
X5.4Y-2.8
X5.4Y-2.9
X5.4Y-3.0
X5.4Y-3.3
X5.4Y-3.4
X5.4Y-3.5
X5.4Y-3.6
X5.4Y-3.7
X5.4Y-3.9
X5.4Y-4.0
X5.5Y-2.3
X5.5Y-2.4
X5.5Y-2.6
X5.5Y-2.7
X5.5Y-2.8
X5.5Y-2.9
X5.5Y-3.0
X5.5Y-3.3
X5.5Y-3.4
X5.5Y-3.5
X5.5Y-3.6
X5.5Y-3.7
X5.5Y-3.9
X5.5Y-4.0
X5.6Y-2.3
X5.6Y-2.4
X5.6Y-2.6
X5.6Y-2.7
X5.6Y-2.8
X5.6Y-2.9
X5.6Y-3.0
X5.6Y-3.3
X5.6Y-3.4
X5.6Y-3.5
X5.6Y-3.6
X5.6Y-3.7
X5.6Y-3.9
X5.6Y-4.0
X5.7Y-2.3
X5.7Y-2.4
X5.7Y-2.6
X5.7Y-2.7
X5.7Y-2.8
X5.7Y-2.9
X5.7Y-3.0
X5.7Y-3.3
X5.7Y-3.4
X5.7Y-3.5
X5.7Y-3.6
X5.7Y-3.7
X5.7Y-3.9
X5.7Y-4.0
X5.8Y-2.3
X5.8Y-2.4
X5.8Y-2.6
X5.8Y-2.7
X5.8Y-2.8
X5.8Y-2.9
X5.8Y-3.0
X5.8Y-3.3
X5.8Y-3.4
X5.8Y-3.5
X5.8Y-3.6
X5.8Y-3.7
X5.8Y-3.9
X5.8Y-4.0
X5.9Y-2.3
X5.9Y-2.4
X5.9Y-2.6
X5.9Y-2.7
X5.9Y-2.8
X5.9Y-2.9
X5.9Y-3.0
X5.9Y-3.3
X5.9Y-3.4
X5.9Y-3.5
X5.9Y-3.6
X5.9Y-3.7
X5.9Y-3.9
X5.9Y-4.0
X6.0Y-2.3
X6.0Y-2.4
X6.0Y-2.6
X6.0Y-2.7
X6.0Y-2.8
X6.0Y-2.9
X6.0Y-3.0
X6.0Y-3.3
X6.0Y-3.4
X6.0Y-3.5
X6.0Y-3.6
X6.0Y-3.7
X6.0Y-3.9
X6.0Y-4.0
X6.1Y-2.3
X6.1Y-2.4
X6.1Y-2.6
X6.1Y-2.7
X6.1Y-2.8
X6.1Y-2.9
X6.1Y-3.0
X6.1Y-3.3
X6.1Y-3.4
X6.1Y-3.5
X6.1Y-3.6
X6.1Y-3.7
X6.1Y-3.9
X6.1Y-4.0
X6.2Y-2.3
X6.2Y-2.4
X6.2Y-2.6
X6.2Y-2.7
X6.2Y-2.8
X6.2Y-2.9
X6.2Y-3.0
X6.2Y-3.3
X6.2Y-3.4
X6.2Y-3.5
X6.2Y-3.6
X6.2Y-3.7
X6.2Y-3.9
X6.2Y-4.0
X6.3Y-2.3
X6.3Y-2.4
X6.3Y-2.6
X6.3Y-2.7
X6.3Y-2.8
X6.3Y-2.9
X6.3Y-3.0
X6.3Y-3.3
X6.3Y-3.4
X6.3Y-3.5
X6.3Y-3.6
X6.3Y-3.7
X6.3Y-3.9
X6.3Y-4.0
X6.4Y-2.3
X6.4Y-2.4
X6.4Y-2.6
X6.4Y-2.7
X6.4Y-2.8
X6.4Y-2.9
X6.4Y-3.0
X6.4Y-3.3
X6.4Y-3.4
X6.4Y-3.5
X6.4Y-3.6
X6.4Y-3.7
X6.4Y-3.9
X6.4Y-4.0
X6.5Y-2.3
X6.5Y-2.4
X6.5Y-2.6
X6.5Y-2.7
X6.5Y-2.8
X6.5Y-2.9
X6.5Y-3.0
X6.5Y-3.3
X6.5Y-3.4
X6.5Y-3.5
X6.5Y-3.6
X6.5Y-3.7
X6.5Y-3.9
X6.5Y-4.0
X6.6Y-2.3
X6.6Y-2.4
X6.6Y-2.6
X6.6Y-2.7
X6.6Y-2.8
X6.6Y-2.9
X6.6Y-3.0
X6.6Y-3.3
X6.6Y-3.4
X6.6Y-3.5
X6.6Y-3.6
X6.6Y-3.7
X6.6Y-3.9
X6.6Y-4.0
X6.7Y-2.3
X6.7Y-2.4
X6.7Y-2.6
X6.7Y-2.7
X6.7Y-2.8
X6.7Y-2.9
X6.7Y-3.0
X6.7Y-3.3
X6.7Y-3.4
X6.7Y-3.5
X6.7Y-3.6
X6.7Y-3.7
X6.7Y-3.9
X6.7Y-4.0
X6.8Y-2.3
X6.8Y-2.4
X6.8Y-2.6
X6.8Y-2.7
X6.8Y-2.8
X6.8Y-2.9
X6.8Y-3.0
X6.8Y-3.3
X6.8Y-3.4
X6.8Y-3.5
X6.8Y-3.6
X6.8Y-3.7
X6.8Y-3.9
X6.8Y-4.0
X6.9Y-2.3
X6.9Y-2.4
X6.9Y-2.6
X6.9Y-2.7
X6.9Y-2.8
X6.9Y-2.9
X6.9Y-3.0
X6.9Y-3.3
X6.9Y-3.4
X6.9Y-3.5
X6.9Y-3.6
X6.9Y-3.7
X6.9Y-3.9
X6.9Y-4.0
X7.0Y-2.3
X7.0Y-2.4
X7.0Y-2.6
X7.0Y-2.7
X7.0Y-2.8
X7.0Y-2.9
X7.0Y-3.0
X7.0Y-3.3
X7.0Y-3.4
X7.0Y-3.5
X7.0Y-3.6
X7.0Y-3.7
X7.0Y-3.9
X7.0Y-4.0
X7.1Y-2.3
X7.1Y-2.4
X7.1Y-2.6
X7.1Y-2.7
X7.1Y-2.8
X7.1Y-2.9
X7.1Y-3.0
X7.1Y-3.3
X7.1Y-3.4
X7.1Y-3.5
X7.1Y-3.6
X7.1Y-3.7
X7.1Y-3.9
X7.1Y-4.0
X7.2Y-2.3
X7.2Y-2.4
X7.2Y-2.6
X7.2Y-2.7
X7.2Y-2.8
X7.2Y-2.9
X7.2Y-3.0
X7.2Y-3.3
X7.2Y-3.4
X7.2Y-3.5
X7.2Y-3.6
X7.2Y-3.7
X7.2Y-3.9
X7.2Y-4.0
X7.3Y-2.3
X7.3Y-2.4
X7.3Y-2.6
X7.3Y-2.7
X7.3Y-2.8
X7.3Y-2.9
X7.3Y-3.0
X7.3Y-3.3
X7.3Y-3.4
X7.3Y-3.5
X7.3Y-3.6
X7.3Y-3.7
X7.3Y-3.9
X7.3Y-4.0
X7.4Y-2.3
X7.4Y-2.4
X7.4Y-2.6
X7.4Y-2.7
X7.4Y-2.8
X7.4Y-2.9
X7.4Y-3.0
X7.4Y-3.3
X7.4Y-3.4
X7.4Y-3.5
X7.4Y-3.6
X7.4Y-3.7
X7.4Y-3.9
X7.4Y-4.0
X7.5Y-2.3
X7.5Y-2.4
X7.5Y-2.6
X7.5Y-2.7
X7.5Y-2.8
X7.5Y-2.9
X7.5Y-3.0
X7.5Y-3.3
X7.5Y-3.4
X7.5Y-3.5
X7.5Y-3.6
X7.5Y-3.7
X7.5Y-3.9
X7.5Y-4.0
X7.6Y-2.3
X7.6Y-2.4
X7.6Y-2.6
X7.6Y-2.7
X7.6Y-2.8
X7.6Y-2.9
X7.6Y-3.0
X7.6Y-3.3
X7.6Y-3.4
X7.6Y-3.5
X7.6Y-3.6
X7.6Y-3.7
X7.6Y-3.9
X7.6Y-4.0
X7.7Y-2.3
X7.7Y-2.4
X7.7Y-2.6
X7.7Y-2.7
X7.7Y-2.8
X7.7Y-2.9
X7.7Y-3.0
X7.7Y-3.3
X7.7Y-3.4
X7.7Y-3.5
X7.7Y-3.6
X7.7Y-3.7
X7.7Y-3.9
X7.7Y-4.0
X7.8Y-2.3
X7.8Y-2.4
X7.8Y-2.6
X7.8Y-2.7
X7.8Y-2.8
X7.8Y-2.9
X7.8Y-3.0
X7.8Y-3.3
X7.8Y-3.4
X7.8Y-3.5
X7.8Y-3.6
X7.8Y-3.7
X7.8Y-3.9
X7.8Y-4.0
X7.9Y-2.3
X7.9Y-2.4
X7.9Y-2.6
X7.9Y-2.7
X7.9Y-2.8
X7.9Y-2.9
X7.9Y-3.0
X7.9Y-3.3
X7.9Y-3.4
X7.9Y-3.5
X7.9Y-3.6
X7.9Y-3.7
X7.9Y-3.9
X7.9Y-4.0
X8.0Y-2.3
X8.0Y-2.4
X8.0Y-2.6
X8.0Y-2.7
X8.0Y-2.8
X8.0Y-2.9
X8.0Y-3.0
X8.0Y-3.3
X8.0Y-3.4
X8.0Y-3.5
X8.0Y-3.6
X8.0Y-3.7
X8.0Y-3.9
X8.0Y-4.0
X8.1Y-2.3
X8.1Y-2.4
X8.1Y-2.6
X8.1Y-2.7
X8.1Y-2.8
X8.1Y-2.9
X8.1Y-3.0
X8.1Y-3.3
X8.1Y-3.4
X8.1Y-3.5
X8.1Y-3.6
X8.1Y-3.7
X8.1Y-3.9
X8.1Y-4.0
X8.2Y-2.3
X8.2Y-2.4
X8.2Y-2.6
X8.2Y-2.7
X8.2Y-2.8
X8.2Y-2.9
X8.2Y-3.0
X8.2Y-3.3
X8.2Y-3.4
X8.2Y-3.5
X8.2Y-3.6
X8.2Y-3.7
X8.2Y-3.9
X8.2Y-4.0
X8.3Y-2.3
X8.3Y-2.4
X8.3Y-2.6
X8.3Y-2.7
X8.3Y-2.8
X8.3Y-2.9
X8.3Y-3.0
X8.3Y-3.3
X8.3Y-3.4
X8.3Y-3.5
X8.3Y-3.6
X8.3Y-3.7
X8.3Y-3.9
X8.3Y-4.0
X8.4Y-2.3
X8.4Y-2.4
X8.4Y-2.6
X8.4Y-2.7
X8.4Y-2.8
X8.4Y-2.9
X8.4Y-3.0
X8.4Y-3.3
X8.4Y-3.4
X8.4Y-3.5
X8.4Y-3.6
X8.4Y-3.7
X8.4Y-3.9
X8.4Y-4.0
X8.5Y-2.3
X8.5Y-2.4
X8.5Y-2.6
X8.5Y-2.7
X8.5Y-2.8
X8.5Y-2.9
X8.5Y-3.0
X8.5Y-3.3
X8.5Y-3.4
X8.5Y-3.5
X8.5Y-3.6
X8.5Y-3.7
X8.5Y-3.9
X8.5Y-4.0
X8.6Y-2.3
X8.6Y-2.4
X8.6Y-2.6
X8.6Y-2.7
X8.6Y-2.8
X8.6Y-2.9
X8.6Y-3.0
X8.6Y-3.3
X8.6Y-3.4
X8.6Y-3.5
X8.6Y-3.6
X8.6Y-3.7
X8.6Y-3.9
X8.6Y-4.0
X8.7Y-2.3
X8.7Y-2.4
X8.7Y-2.6
X8.7Y-2.7
X8.7Y-2.8
X8.7Y-2.9
X8.7Y-3.0
X8.7Y-3.3
X8.7Y-3.4
X8.7Y-3.5
X8.7Y-3.6
X8.7Y-3.7
X8.7Y-3.9
X8.7Y-4.0
X8.8Y-2.3
X8.8Y-2.4
X8.8Y-2.6
X8.8Y-2.7
X8.8Y-2.8
X8.8Y-2.9
X8.8Y-3.0
X8.8Y-3.3
X8.8Y-3.4
X8.8Y-3.5
X8.8Y-3.6
X8.8Y-3.7
X8.8Y-3.9
X8.8Y-4.0
X8.9Y-2.3
X8.9Y-2.4
X8.9Y-2.6
X8.9Y-2.7
X8.9Y-2.8
X8.9Y-2.9
X8.9Y-3.0
X8.9Y-3.3
X8.9Y-3.4
X8.9Y-3.5
X8.9Y-3.6
X8.9Y-3.7
X8.9Y-3.9
X8.9Y-4.0
X9.0Y-2.3
X9.0Y-2.4
X9.0Y-2.6
X9.0Y-2.7
X9.0Y-2.8
X9.0Y-2.9
X9.0Y-3.0
X9.0Y-3.3
X9.0Y-3.4
X9.0Y-3.5
X9.0Y-3.6
X9.0Y-3.7
X9.0Y-3.9
X9.0Y-4.0
X9.1Y-2.3
X9.1Y-2.4
X9.1Y-2.6
X9.1Y-2.7
X9.1Y-2.8
X9.1Y-2.9
X9.1Y-3.0
X9.1Y-3.3
X9.1Y-3.4
X9.1Y-3.5
X9.1Y-3.6
X9.1Y-3.7
X9.1Y-3.9
X9.1Y-4.0
T0
M30
