%TF.GenerationSoftware,KiCad,Pcbnew,5.1.9-73d0e3b20d~88~ubuntu20.04.1*%
%TF.CreationDate,2021-01-27T17:21:51-06:00*%
%TF.ProjectId,ProtoPCBs,50726f74-6f50-4434-9273-2e6b69636164,rev?*%
%TF.SameCoordinates,Original*%
%TF.FileFunction,Copper,L1,Top*%
%TF.FilePolarity,Positive*%
%FSLAX46Y46*%
G04 Gerber Fmt 4.6, Leading zero omitted, Abs format (unit mm)*
G04 Created by KiCad (PCBNEW 5.1.9-73d0e3b20d~88~ubuntu20.04.1) date 2021-01-27 17:21:51*
%MOMM*%
%LPD*%
G01*
G04 APERTURE LIST*
%TA.AperFunction,ComponentPad*%
%ADD10C,1.524000*%
%TD*%
%TA.AperFunction,Conductor*%
%ADD11C,0.406400*%
%TD*%
G04 APERTURE END LIST*
D10*
%TO.P,REF\u002A\u002A,1*%
%TO.N,N/C*%
X193040000Y-58420000D03*
X203200000Y-60960000D03*
X226060000Y-58420000D03*
X205740000Y-60960000D03*
X223520000Y-58420000D03*
X193040000Y-60960000D03*
X213360000Y-60960000D03*
X205740000Y-58420000D03*
X220980000Y-60960000D03*
X231140000Y-60960000D03*
X218440000Y-60960000D03*
X208280000Y-58420000D03*
X215900000Y-58420000D03*
X220980000Y-58420000D03*
X228600000Y-58420000D03*
X231140000Y-58420000D03*
X203200000Y-58420000D03*
X200660000Y-58420000D03*
X215900000Y-60960000D03*
X223520000Y-60960000D03*
X226060000Y-60960000D03*
X213360000Y-58420000D03*
X228600000Y-60960000D03*
X198120000Y-58420000D03*
X210820000Y-58420000D03*
X210820000Y-60960000D03*
X208280000Y-60960000D03*
X195580000Y-60960000D03*
X218440000Y-58420000D03*
X198120000Y-60960000D03*
X200660000Y-60960000D03*
X195580000Y-58420000D03*
X193040000Y-101600000D03*
X228600000Y-101600000D03*
X215900000Y-101600000D03*
X231140000Y-99060000D03*
X213360000Y-101600000D03*
X220980000Y-99060000D03*
X220980000Y-101600000D03*
X195580000Y-101600000D03*
X203200000Y-99060000D03*
X198120000Y-99060000D03*
X210820000Y-101600000D03*
X226060000Y-99060000D03*
X203200000Y-101600000D03*
X213360000Y-99060000D03*
X208280000Y-99060000D03*
X231140000Y-101600000D03*
X223520000Y-99060000D03*
X223520000Y-101600000D03*
X218440000Y-101600000D03*
X218440000Y-99060000D03*
X228600000Y-99060000D03*
X215900000Y-99060000D03*
X200660000Y-99060000D03*
X200660000Y-101600000D03*
X208280000Y-101600000D03*
X210820000Y-99060000D03*
X195580000Y-99060000D03*
X205740000Y-99060000D03*
X226060000Y-101600000D03*
X193040000Y-99060000D03*
X205740000Y-101600000D03*
X198120000Y-101600000D03*
X193040000Y-83820000D03*
X193040000Y-93980000D03*
X203200000Y-86360000D03*
X228600000Y-93980000D03*
X228600000Y-88900000D03*
X226060000Y-83820000D03*
X215900000Y-93980000D03*
X205740000Y-86360000D03*
X213360000Y-88900000D03*
X223520000Y-83820000D03*
X231140000Y-91440000D03*
X193040000Y-86360000D03*
X213360000Y-86360000D03*
X213360000Y-93980000D03*
X220980000Y-91440000D03*
X220980000Y-93980000D03*
X205740000Y-83820000D03*
X220980000Y-86360000D03*
X195580000Y-93980000D03*
X198120000Y-88900000D03*
X226060000Y-88900000D03*
X213360000Y-91440000D03*
X231140000Y-86360000D03*
X218440000Y-86360000D03*
X208280000Y-91440000D03*
X231140000Y-93980000D03*
X223520000Y-91440000D03*
X223520000Y-93980000D03*
X218440000Y-93980000D03*
X203200000Y-88900000D03*
X200660000Y-88900000D03*
X208280000Y-83820000D03*
X215900000Y-83820000D03*
X218440000Y-91440000D03*
X218440000Y-88900000D03*
X228600000Y-91440000D03*
X220980000Y-83820000D03*
X215900000Y-91440000D03*
X200660000Y-91440000D03*
X220980000Y-88900000D03*
X228600000Y-83820000D03*
X200660000Y-93980000D03*
X215900000Y-88900000D03*
X231140000Y-83820000D03*
X208280000Y-93980000D03*
X208280000Y-88900000D03*
X203200000Y-83820000D03*
X210820000Y-91440000D03*
X200660000Y-83820000D03*
X215900000Y-86360000D03*
X195580000Y-91440000D03*
X205740000Y-91440000D03*
X223520000Y-86360000D03*
X226060000Y-86360000D03*
X213360000Y-83820000D03*
X228600000Y-86360000D03*
X226060000Y-93980000D03*
X198120000Y-83820000D03*
X195580000Y-88900000D03*
X210820000Y-83820000D03*
X193040000Y-91440000D03*
X210820000Y-86360000D03*
X231140000Y-88900000D03*
X208280000Y-86360000D03*
X223520000Y-88900000D03*
X205740000Y-93980000D03*
X205740000Y-88900000D03*
X195580000Y-86360000D03*
X198120000Y-93980000D03*
X210820000Y-93980000D03*
X210820000Y-88900000D03*
X226060000Y-91440000D03*
X218440000Y-83820000D03*
X203200000Y-93980000D03*
X193040000Y-88900000D03*
X198120000Y-86360000D03*
X200660000Y-86360000D03*
X195580000Y-83820000D03*
X198120000Y-91440000D03*
X203200000Y-91440000D03*
X213360000Y-66040000D03*
X213360000Y-76200000D03*
X223520000Y-68580000D03*
X226060000Y-68580000D03*
X213360000Y-68580000D03*
X226060000Y-66040000D03*
X215900000Y-76200000D03*
X218440000Y-71120000D03*
X228600000Y-73660000D03*
X223520000Y-71120000D03*
X220980000Y-71120000D03*
X228600000Y-66040000D03*
X220980000Y-73660000D03*
X220980000Y-76200000D03*
X228600000Y-76200000D03*
X228600000Y-71120000D03*
X223520000Y-66040000D03*
X231140000Y-73660000D03*
X220980000Y-66040000D03*
X215900000Y-73660000D03*
X226060000Y-73660000D03*
X218440000Y-66040000D03*
X215900000Y-71120000D03*
X231140000Y-66040000D03*
X213360000Y-73660000D03*
X231140000Y-68580000D03*
X228600000Y-68580000D03*
X226060000Y-76200000D03*
X226060000Y-71120000D03*
X215900000Y-68580000D03*
X218440000Y-76200000D03*
X231140000Y-76200000D03*
X231140000Y-71120000D03*
X223520000Y-76200000D03*
X213360000Y-71120000D03*
X218440000Y-68580000D03*
X220980000Y-68580000D03*
X215900000Y-66040000D03*
X218440000Y-73660000D03*
X223520000Y-73660000D03*
X210820000Y-73660000D03*
X210820000Y-66040000D03*
X210820000Y-76200000D03*
X210820000Y-71120000D03*
X210820000Y-68580000D03*
X208280000Y-68580000D03*
X208280000Y-66040000D03*
X208280000Y-73660000D03*
X208280000Y-76200000D03*
X208280000Y-71120000D03*
X205740000Y-68580000D03*
X205740000Y-71120000D03*
X205740000Y-66040000D03*
X205740000Y-76200000D03*
X205740000Y-73660000D03*
X203200000Y-71120000D03*
X203200000Y-73660000D03*
X203200000Y-76200000D03*
X203200000Y-66040000D03*
X203200000Y-68580000D03*
X200660000Y-71120000D03*
X200660000Y-66040000D03*
X200660000Y-76200000D03*
X200660000Y-68580000D03*
X200660000Y-73660000D03*
X198120000Y-76200000D03*
X198120000Y-73660000D03*
X198120000Y-71120000D03*
X198120000Y-68580000D03*
X198120000Y-66040000D03*
X195580000Y-66040000D03*
X195580000Y-76200000D03*
X195580000Y-68580000D03*
X195580000Y-73660000D03*
X195580000Y-71120000D03*
X193040000Y-76200000D03*
X193040000Y-73660000D03*
X193040000Y-71120000D03*
X193040000Y-68580000D03*
X193040000Y-66040000D03*
%TD*%
D11*
%TO.N,*%
X203200000Y-66040000D02*
X203200000Y-76200000D01*
X193040000Y-66040000D02*
X193040000Y-76200000D01*
X200660000Y-66040000D02*
X200660000Y-76200000D01*
X205740000Y-66040000D02*
X205740000Y-76200000D01*
X195580000Y-66040000D02*
X195580000Y-76200000D01*
X208280000Y-66040000D02*
X208280000Y-76200000D01*
X198120000Y-66040000D02*
X198120000Y-76200000D01*
X210820000Y-66040000D02*
X210820000Y-76200000D01*
X215900000Y-66040000D02*
X215900000Y-76200000D01*
X218440000Y-66040000D02*
X218440000Y-76200000D01*
X220980000Y-66040000D02*
X220980000Y-76200000D01*
X228600000Y-66040000D02*
X228600000Y-76200000D01*
X223520000Y-66040000D02*
X223520000Y-76200000D01*
X213360000Y-66040000D02*
X213360000Y-76200000D01*
X231140000Y-66040000D02*
X231140000Y-76200000D01*
X226060000Y-66040000D02*
X226060000Y-76200000D01*
X195580000Y-83820000D02*
X195580000Y-93980000D01*
X213360000Y-83820000D02*
X213360000Y-93980000D01*
X220980000Y-83820000D02*
X220980000Y-93980000D01*
X228600000Y-83820000D02*
X228600000Y-93980000D01*
X198120000Y-83820000D02*
X198120000Y-93980000D01*
X218440000Y-83820000D02*
X218440000Y-93980000D01*
X200660000Y-83820000D02*
X200660000Y-93980000D01*
X208280000Y-83820000D02*
X208280000Y-93980000D01*
X203200000Y-83820000D02*
X203200000Y-93980000D01*
X231140000Y-83820000D02*
X231140000Y-93980000D01*
X226060000Y-83820000D02*
X226060000Y-93980000D01*
X193040000Y-83820000D02*
X193040000Y-93980000D01*
X210820000Y-83820000D02*
X210820000Y-93980000D01*
X205740000Y-83820000D02*
X205740000Y-93980000D01*
X223520000Y-83820000D02*
X223520000Y-93980000D01*
X215900000Y-83820000D02*
X215900000Y-93980000D01*
X193040000Y-58420000D02*
X231140000Y-58420000D01*
X193040000Y-60960000D02*
X231140000Y-60960000D01*
X193040000Y-99060000D02*
X231140000Y-99060000D01*
X193040000Y-101600000D02*
X231140000Y-101600000D01*
%TD*%
M02*
