%TF.GenerationSoftware,KiCad,Pcbnew,5.1.9-73d0e3b20d~88~ubuntu20.04.1*%
%TF.CreationDate,2021-01-27T17:21:08-06:00*%
%TF.ProjectId,ProtoPCBs,50726f74-6f50-4434-9273-2e6b69636164,rev?*%
%TF.SameCoordinates,Original*%
%TF.FileFunction,Copper,L2,Bot*%
%TF.FilePolarity,Positive*%
%FSLAX46Y46*%
G04 Gerber Fmt 4.6, Leading zero omitted, Abs format (unit mm)*
G04 Created by KiCad (PCBNEW 5.1.9-73d0e3b20d~88~ubuntu20.04.1) date 2021-01-27 17:21:08*
%MOMM*%
%LPD*%
G01*
G04 APERTURE LIST*
%TA.AperFunction,ComponentPad*%
%ADD10C,1.524000*%
%TD*%
G04 APERTURE END LIST*
D10*
%TO.P,REF\u002A\u002A,1*%
%TO.N,N/C*%
X152400000Y-83820000D03*
X152400000Y-93980000D03*
X162560000Y-86360000D03*
X215900000Y-83820000D03*
X223520000Y-91440000D03*
X223520000Y-93980000D03*
X220980000Y-91440000D03*
X220980000Y-93980000D03*
X187960000Y-93980000D03*
X187960000Y-88900000D03*
X185420000Y-83820000D03*
X175260000Y-93980000D03*
X195580000Y-91440000D03*
X200660000Y-88900000D03*
X215900000Y-91440000D03*
X220980000Y-88900000D03*
X223520000Y-88900000D03*
X203200000Y-88900000D03*
X165100000Y-86360000D03*
X172720000Y-88900000D03*
X210820000Y-88900000D03*
X182880000Y-83820000D03*
X190500000Y-91440000D03*
X152400000Y-86360000D03*
X172720000Y-86360000D03*
X172720000Y-93980000D03*
X193040000Y-86360000D03*
X193040000Y-93980000D03*
X180340000Y-91440000D03*
X180340000Y-93980000D03*
X165100000Y-83820000D03*
X180340000Y-86360000D03*
X154940000Y-93980000D03*
X157480000Y-88900000D03*
X218440000Y-91440000D03*
X218440000Y-88900000D03*
X218440000Y-86360000D03*
X231140000Y-93980000D03*
X220980000Y-86360000D03*
X226060000Y-88900000D03*
X185420000Y-88900000D03*
X172720000Y-91440000D03*
X190500000Y-86360000D03*
X215900000Y-93980000D03*
X213360000Y-88900000D03*
X223520000Y-86360000D03*
X213360000Y-91440000D03*
X231140000Y-86360000D03*
X218440000Y-93980000D03*
X208280000Y-93980000D03*
X177800000Y-86360000D03*
X167640000Y-91440000D03*
X190500000Y-93980000D03*
X182880000Y-91440000D03*
X182880000Y-93980000D03*
X177800000Y-93980000D03*
X162560000Y-88900000D03*
X228600000Y-86360000D03*
X226060000Y-86360000D03*
X223520000Y-83820000D03*
X231140000Y-91440000D03*
X226060000Y-93980000D03*
X226060000Y-91440000D03*
X208280000Y-83820000D03*
X195580000Y-88900000D03*
X160020000Y-88900000D03*
X167640000Y-83820000D03*
X175260000Y-83820000D03*
X177800000Y-91440000D03*
X177800000Y-88900000D03*
X187960000Y-91440000D03*
X180340000Y-83820000D03*
X175260000Y-91440000D03*
X160020000Y-91440000D03*
X180340000Y-88900000D03*
X187960000Y-83820000D03*
X195580000Y-93980000D03*
X193040000Y-88900000D03*
X160020000Y-93980000D03*
X203200000Y-86360000D03*
X193040000Y-91440000D03*
X210820000Y-86360000D03*
X175260000Y-88900000D03*
X190500000Y-83820000D03*
X167640000Y-93980000D03*
X167640000Y-88900000D03*
X231140000Y-88900000D03*
X213360000Y-86360000D03*
X213360000Y-93980000D03*
X228600000Y-93980000D03*
X228600000Y-83820000D03*
X215900000Y-88900000D03*
X162560000Y-83820000D03*
X198120000Y-93980000D03*
X195580000Y-83820000D03*
X170180000Y-91440000D03*
X231140000Y-83820000D03*
X215900000Y-86360000D03*
X228600000Y-91440000D03*
X220980000Y-83820000D03*
X218440000Y-83820000D03*
X160020000Y-83820000D03*
X175260000Y-86360000D03*
X154940000Y-91440000D03*
X165100000Y-91440000D03*
X203200000Y-91440000D03*
X203200000Y-93980000D03*
X200660000Y-91440000D03*
X200660000Y-93980000D03*
X208280000Y-86360000D03*
X226060000Y-83820000D03*
X182880000Y-86360000D03*
X185420000Y-86360000D03*
X205740000Y-86360000D03*
X203200000Y-83820000D03*
X210820000Y-91440000D03*
X205740000Y-93980000D03*
X205740000Y-91440000D03*
X172720000Y-83820000D03*
X187960000Y-86360000D03*
X185420000Y-93980000D03*
X157480000Y-83820000D03*
X198120000Y-91440000D03*
X198120000Y-88900000D03*
X198120000Y-86360000D03*
X210820000Y-93980000D03*
X154940000Y-88900000D03*
X170180000Y-83820000D03*
X152400000Y-91440000D03*
X170180000Y-86360000D03*
X200660000Y-86360000D03*
X205740000Y-88900000D03*
X190500000Y-88900000D03*
X167640000Y-86360000D03*
X213360000Y-83820000D03*
X228600000Y-88900000D03*
X210820000Y-83820000D03*
X195580000Y-86360000D03*
X208280000Y-91440000D03*
X200660000Y-83820000D03*
X182880000Y-88900000D03*
X165100000Y-93980000D03*
X165100000Y-88900000D03*
X154940000Y-86360000D03*
X157480000Y-93980000D03*
X170180000Y-93980000D03*
X198120000Y-83820000D03*
X193040000Y-83820000D03*
X208280000Y-88900000D03*
X205740000Y-83820000D03*
X170180000Y-88900000D03*
X185420000Y-91440000D03*
X177800000Y-83820000D03*
X162560000Y-93980000D03*
X152400000Y-88900000D03*
X157480000Y-86360000D03*
X160020000Y-86360000D03*
X154940000Y-83820000D03*
X157480000Y-91440000D03*
X162560000Y-91440000D03*
X215900000Y-73660000D03*
X220980000Y-71120000D03*
X223520000Y-71120000D03*
X231140000Y-71120000D03*
X213360000Y-68580000D03*
X213360000Y-76200000D03*
X228600000Y-76200000D03*
X228600000Y-66040000D03*
X215900000Y-71120000D03*
X215900000Y-76200000D03*
X213360000Y-71120000D03*
X223520000Y-68580000D03*
X213360000Y-73660000D03*
X231140000Y-68580000D03*
X218440000Y-76200000D03*
X215900000Y-66040000D03*
X223520000Y-73660000D03*
X223520000Y-76200000D03*
X220980000Y-73660000D03*
X220980000Y-76200000D03*
X228600000Y-68580000D03*
X226060000Y-68580000D03*
X223520000Y-66040000D03*
X231140000Y-73660000D03*
X226060000Y-76200000D03*
X226060000Y-73660000D03*
X218440000Y-73660000D03*
X218440000Y-71120000D03*
X218440000Y-68580000D03*
X231140000Y-76200000D03*
X220980000Y-68580000D03*
X226060000Y-71120000D03*
X231140000Y-66040000D03*
X215900000Y-68580000D03*
X228600000Y-73660000D03*
X220980000Y-66040000D03*
X218440000Y-66040000D03*
X213360000Y-66040000D03*
X228600000Y-71120000D03*
X226060000Y-66040000D03*
X208280000Y-76200000D03*
X208280000Y-71120000D03*
X205740000Y-66040000D03*
X195580000Y-76200000D03*
X193040000Y-71120000D03*
X203200000Y-66040000D03*
X210820000Y-73660000D03*
X193040000Y-68580000D03*
X193040000Y-76200000D03*
X200660000Y-73660000D03*
X200660000Y-76200000D03*
X200660000Y-68580000D03*
X205740000Y-71120000D03*
X193040000Y-73660000D03*
X210820000Y-68580000D03*
X198120000Y-68580000D03*
X210820000Y-76200000D03*
X203200000Y-73660000D03*
X203200000Y-76200000D03*
X198120000Y-76200000D03*
X195580000Y-66040000D03*
X198120000Y-73660000D03*
X198120000Y-71120000D03*
X208280000Y-73660000D03*
X200660000Y-66040000D03*
X195580000Y-73660000D03*
X200660000Y-71120000D03*
X208280000Y-66040000D03*
X195580000Y-71120000D03*
X210820000Y-66040000D03*
X195580000Y-68580000D03*
X203200000Y-68580000D03*
X205740000Y-68580000D03*
X193040000Y-66040000D03*
X208280000Y-68580000D03*
X205740000Y-76200000D03*
X210820000Y-71120000D03*
X203200000Y-71120000D03*
X205740000Y-73660000D03*
X198120000Y-66040000D03*
X172720000Y-66040000D03*
X172720000Y-76200000D03*
X182880000Y-68580000D03*
X185420000Y-68580000D03*
X172720000Y-68580000D03*
X185420000Y-66040000D03*
X175260000Y-76200000D03*
X177800000Y-71120000D03*
X187960000Y-73660000D03*
X182880000Y-71120000D03*
X180340000Y-71120000D03*
X187960000Y-66040000D03*
X180340000Y-73660000D03*
X180340000Y-76200000D03*
X187960000Y-76200000D03*
X187960000Y-71120000D03*
X182880000Y-66040000D03*
X190500000Y-73660000D03*
X180340000Y-66040000D03*
X175260000Y-73660000D03*
X185420000Y-73660000D03*
X177800000Y-66040000D03*
X175260000Y-71120000D03*
X190500000Y-66040000D03*
X172720000Y-73660000D03*
X190500000Y-68580000D03*
X187960000Y-68580000D03*
X185420000Y-76200000D03*
X185420000Y-71120000D03*
X175260000Y-68580000D03*
X177800000Y-76200000D03*
X190500000Y-76200000D03*
X190500000Y-71120000D03*
X182880000Y-76200000D03*
X172720000Y-71120000D03*
X177800000Y-68580000D03*
X180340000Y-68580000D03*
X175260000Y-66040000D03*
X177800000Y-73660000D03*
X182880000Y-73660000D03*
X170180000Y-73660000D03*
X170180000Y-66040000D03*
X170180000Y-76200000D03*
X170180000Y-71120000D03*
X170180000Y-68580000D03*
X167640000Y-68580000D03*
X167640000Y-66040000D03*
X167640000Y-73660000D03*
X167640000Y-76200000D03*
X167640000Y-71120000D03*
X165100000Y-68580000D03*
X165100000Y-71120000D03*
X165100000Y-66040000D03*
X165100000Y-76200000D03*
X165100000Y-73660000D03*
X162560000Y-71120000D03*
X162560000Y-73660000D03*
X162560000Y-76200000D03*
X162560000Y-66040000D03*
X162560000Y-68580000D03*
X160020000Y-71120000D03*
X160020000Y-66040000D03*
X160020000Y-76200000D03*
X160020000Y-68580000D03*
X160020000Y-73660000D03*
X157480000Y-76200000D03*
X157480000Y-73660000D03*
X157480000Y-71120000D03*
X157480000Y-68580000D03*
X157480000Y-66040000D03*
X154940000Y-66040000D03*
X154940000Y-76200000D03*
X154940000Y-68580000D03*
X154940000Y-73660000D03*
X154940000Y-71120000D03*
X152400000Y-76200000D03*
X152400000Y-73660000D03*
X152400000Y-71120000D03*
X152400000Y-68580000D03*
X152400000Y-66040000D03*
%TD*%
M02*
